<mxfile host="65bd71144e">
    <diagram id="eNo6lPj8VxHQ5PX3t6Yt" name="Page-1">
        <mxGraphModel dx="4300" dy="-765" grid="1" gridSize="10" guides="1" tooltips="1" connect="1" arrows="1" fold="1" page="1" pageScale="1" pageWidth="850" pageHeight="1100" background="#ffffff" math="0" shadow="0">
            <root>
                <mxCell id="0"/>
                <mxCell id="1" parent="0"/>
                <mxCell id="2" value="" style="rounded=0;whiteSpace=wrap;html=1;fillColor=#FFFFFF;" vertex="1" parent="1">
                    <mxGeometry x="-70" y="4550" width="740" height="880" as="geometry"/>
                </mxCell>
                <mxCell id="3" value="" style="rounded=0;whiteSpace=wrap;html=1;fillColor=#FFFFFF;" vertex="1" parent="1">
                    <mxGeometry x="790" y="4551.43" width="930" height="708.57" as="geometry"/>
                </mxCell>
                <mxCell id="4" value="" style="rounded=0;whiteSpace=wrap;html=1;fillColor=#f5f5f5;movable=1;resizable=1;rotatable=1;deletable=1;editable=1;locked=0;connectable=1;fontColor=#333333;strokeColor=#666666;" vertex="1" parent="1">
                    <mxGeometry x="880" y="4799.72" width="800" height="390.28" as="geometry"/>
                </mxCell>
                <mxCell id="5" style="edgeStyle=orthogonalEdgeStyle;rounded=0;orthogonalLoop=1;jettySize=auto;html=1;exitX=1;exitY=0.5;exitDx=0;exitDy=0;entryX=0;entryY=0.5;entryDx=0;entryDy=0;" edge="1" parent="1" source="6" target="114">
                    <mxGeometry relative="1" as="geometry"/>
                </mxCell>
                <mxCell id="6" value="" style="rounded=0;whiteSpace=wrap;html=1;fillColor=#dae8fc;movable=1;resizable=1;rotatable=1;deletable=1;editable=1;locked=0;connectable=1;strokeColor=#6c8ebf;" vertex="1" parent="1">
                    <mxGeometry x="1286.63" y="4820" width="183.37" height="320" as="geometry"/>
                </mxCell>
                <mxCell id="7" value="" style="endArrow=classic;html=1;rounded=0;strokeColor=#FF0000;" edge="1" parent="1">
                    <mxGeometry width="50" height="50" relative="1" as="geometry">
                        <mxPoint x="278.01" y="5141.86" as="sourcePoint"/>
                        <mxPoint x="277.76" y="5281.86" as="targetPoint"/>
                    </mxGeometry>
                </mxCell>
                <mxCell id="8" value="" style="rounded=0;whiteSpace=wrap;html=1;fillColor=#dae8fc;fontStyle=1;strokeColor=#6c8ebf;" vertex="1" parent="1">
                    <mxGeometry x="107.5" y="4633.98" width="292.5" height="186.02" as="geometry"/>
                </mxCell>
                <mxCell id="9" value="" style="rounded=0;whiteSpace=wrap;html=1;fillColor=#E6FFCC;fontStyle=1;strokeColor=#82b366;" vertex="1" parent="1">
                    <mxGeometry x="115" y="4712.78" width="275" height="97.22" as="geometry"/>
                </mxCell>
                <mxCell id="10" value="" style="rounded=0;whiteSpace=wrap;html=1;fillColor=#FFFFFF;" vertex="1" parent="1">
                    <mxGeometry x="-260" y="3970" width="626.5" height="407" as="geometry"/>
                </mxCell>
                <mxCell id="11" style="edgeStyle=orthogonalEdgeStyle;rounded=0;orthogonalLoop=1;jettySize=auto;html=1;exitX=0;exitY=0.75;exitDx=0;exitDy=0;entryX=0;entryY=0.75;entryDx=0;entryDy=0;strokeColor=#0000FF;" edge="1" parent="1" target="13">
                    <mxGeometry relative="1" as="geometry">
                        <mxPoint x="20" y="5073.937391304347" as="sourcePoint"/>
                    </mxGeometry>
                </mxCell>
                <mxCell id="12" style="edgeStyle=orthogonalEdgeStyle;rounded=0;orthogonalLoop=1;jettySize=auto;html=1;exitX=0;exitY=0.25;exitDx=0;exitDy=0;strokeColor=#0000FF;" edge="1" parent="1" source="13">
                    <mxGeometry relative="1" as="geometry">
                        <mxPoint x="20" y="4953.937391304347" as="targetPoint"/>
                    </mxGeometry>
                </mxCell>
                <mxCell id="13" value="" style="rounded=0;whiteSpace=wrap;html=1;fillColor=#dae8fc;fontStyle=1;strokeColor=#6c8ebf;" vertex="1" parent="1">
                    <mxGeometry x="110" y="4893.72" width="190" height="240" as="geometry"/>
                </mxCell>
                <mxCell id="14" style="edgeStyle=orthogonalEdgeStyle;rounded=0;orthogonalLoop=1;jettySize=auto;html=1;exitX=0.5;exitY=0;exitDx=0;exitDy=0;entryX=0.5;entryY=0;entryDx=0;entryDy=0;strokeWidth=3;" edge="1" parent="1">
                    <mxGeometry relative="1" as="geometry">
                        <mxPoint x="44.66" y="4030.1399999999994" as="targetPoint"/>
                        <mxPoint x="44.502105263157915" y="3960.1399999999994" as="sourcePoint"/>
                        <Array as="points">
                            <mxPoint x="45.16" y="3930.1399999999994"/>
                            <mxPoint x="45.16" y="3930.1399999999994"/>
                        </Array>
                    </mxGeometry>
                </mxCell>
                <mxCell id="15" style="edgeStyle=orthogonalEdgeStyle;rounded=0;orthogonalLoop=1;jettySize=auto;html=1;exitX=0.5;exitY=1;exitDx=0;exitDy=0;entryX=0.5;entryY=0;entryDx=0;entryDy=0;fontColor=#67AB9F;strokeColor=#67AB9F;strokeWidth=3;" edge="1" parent="1">
                    <mxGeometry relative="1" as="geometry">
                        <mxPoint x="47" y="4130.139999999999" as="sourcePoint"/>
                        <mxPoint x="47" y="4200.139999999999" as="targetPoint"/>
                    </mxGeometry>
                </mxCell>
                <mxCell id="16" value="&lt;font style=&quot;font-size: 19px;&quot;&gt;Jtag&lt;/font&gt;" style="text;html=1;align=center;verticalAlign=middle;resizable=0;points=[];autosize=1;strokeColor=none;fillColor=none;fontStyle=1;" vertex="1" parent="1">
                    <mxGeometry x="44" y="3920" width="60" height="40" as="geometry"/>
                </mxCell>
                <mxCell id="17" value="&lt;font style=&quot;font-size: 14px;&quot;&gt;jtag2dtm&lt;/font&gt;" style="text;html=1;align=center;verticalAlign=middle;resizable=0;points=[];autosize=1;strokeColor=none;fillColor=none;" vertex="1" parent="1">
                    <mxGeometry x="49.5" y="4150.139999999999" width="80" height="30" as="geometry"/>
                </mxCell>
                <mxCell id="18" value="" style="endArrow=none;dashed=1;html=1;dashPattern=1 3;strokeWidth=5;rounded=0;strokeColor=#FF0000;" edge="1" parent="1">
                    <mxGeometry width="50" height="50" relative="1" as="geometry">
                        <mxPoint x="-260" y="4525.579999999999" as="sourcePoint"/>
                        <mxPoint x="720" y="4525.579999999999" as="targetPoint"/>
                    </mxGeometry>
                </mxCell>
                <mxCell id="19" style="edgeStyle=orthogonalEdgeStyle;rounded=0;orthogonalLoop=1;jettySize=auto;html=1;exitX=0.5;exitY=1;exitDx=0;exitDy=0;entryX=0.5;entryY=0;entryDx=0;entryDy=0;fillColor=#dae8fc;strokeColor=#6c8ebf;" edge="1" parent="1" source="21" target="24">
                    <mxGeometry relative="1" as="geometry"/>
                </mxCell>
                <mxCell id="20" style="edgeStyle=orthogonalEdgeStyle;rounded=0;orthogonalLoop=1;jettySize=auto;html=1;exitX=1;exitY=0.5;exitDx=0;exitDy=0;entryX=0;entryY=0.5;entryDx=0;entryDy=0;strokeColor=#7EA6E0;strokeWidth=3;" edge="1" parent="1" source="21" target="113">
                    <mxGeometry relative="1" as="geometry">
                        <mxPoint x="770" y="4960.666666666667" as="targetPoint"/>
                        <Array as="points">
                            <mxPoint x="550" y="4961"/>
                            <mxPoint x="550" y="4880"/>
                        </Array>
                    </mxGeometry>
                </mxCell>
                <mxCell id="21" value="DM control and&lt;br&gt;status" style="rounded=0;whiteSpace=wrap;html=1;fontSize=16;" vertex="1" parent="1">
                    <mxGeometry x="130" y="4930.72" width="150" height="60" as="geometry"/>
                </mxCell>
                <mxCell id="22" style="edgeStyle=orthogonalEdgeStyle;rounded=0;orthogonalLoop=1;jettySize=auto;html=1;exitX=0.25;exitY=1;exitDx=0;exitDy=0;entryX=0.221;entryY=-0.012;entryDx=0;entryDy=0;strokeColor=#33FF33;strokeWidth=3;entryPerimeter=0;" edge="1" parent="1" source="24" target="62">
                    <mxGeometry relative="1" as="geometry"/>
                </mxCell>
                <mxCell id="23" style="edgeStyle=orthogonalEdgeStyle;rounded=0;orthogonalLoop=1;jettySize=auto;html=1;exitX=0.5;exitY=1;exitDx=0;exitDy=0;strokeColor=#33FF33;strokeWidth=3;entryX=0.473;entryY=0.01;entryDx=0;entryDy=0;entryPerimeter=0;" edge="1" parent="1" source="24" target="36">
                    <mxGeometry relative="1" as="geometry"/>
                </mxCell>
                <mxCell id="24" value="command" style="rounded=0;whiteSpace=wrap;html=1;fontSize=16;" vertex="1" parent="1">
                    <mxGeometry x="130" y="5050.72" width="150" height="60" as="geometry"/>
                </mxCell>
                <mxCell id="25" style="edgeStyle=orthogonalEdgeStyle;rounded=0;orthogonalLoop=1;jettySize=auto;html=1;exitX=0;exitY=0.75;exitDx=0;exitDy=0;entryX=0;entryY=0.75;entryDx=0;entryDy=0;strokeColor=#0000FF;" edge="1" parent="1" target="62">
                    <mxGeometry relative="1" as="geometry">
                        <mxPoint x="20" y="5215.676521739131" as="sourcePoint"/>
                    </mxGeometry>
                </mxCell>
                <mxCell id="26" style="edgeStyle=orthogonalEdgeStyle;rounded=0;orthogonalLoop=1;jettySize=auto;html=1;exitX=0;exitY=0.25;exitDx=0;exitDy=0;entryX=0;entryY=0.25;entryDx=0;entryDy=0;strokeColor=#0000FF;" edge="1" parent="1" source="62">
                    <mxGeometry relative="1" as="geometry">
                        <mxPoint x="20" y="5186.111304347826" as="targetPoint"/>
                    </mxGeometry>
                </mxCell>
                <mxCell id="27" value="write/read&lt;br&gt;reg" style="text;html=1;align=center;verticalAlign=middle;resizable=0;points=[];autosize=1;strokeColor=none;fillColor=none;" vertex="1" parent="1">
                    <mxGeometry x="-62" y="4599.719999999999" width="80" height="40" as="geometry"/>
                </mxCell>
                <mxCell id="28" value="" style="endArrow=classic;startArrow=classic;html=1;rounded=0;strokeColor=#0000FF;strokeWidth=5;entryX=0.443;entryY=1.005;entryDx=0;entryDy=0;entryPerimeter=0;" edge="1" parent="1" target="10">
                    <mxGeometry width="50" height="50" relative="1" as="geometry">
                        <mxPoint x="18" y="5290" as="sourcePoint"/>
                        <mxPoint x="17.1200000000008" y="4520" as="targetPoint"/>
                    </mxGeometry>
                </mxCell>
                <mxCell id="29" value="" style="endArrow=none;html=1;strokeWidth=4;rounded=1;startArrow=block;startFill=1;endFill=0;strokeColor=#0000FF;fillColor=#0050ef;" edge="1" parent="1">
                    <mxGeometry width="50" height="50" relative="1" as="geometry">
                        <mxPoint x="663" y="4140.14" as="sourcePoint"/>
                        <mxPoint x="713" y="4140.14" as="targetPoint"/>
                    </mxGeometry>
                </mxCell>
                <mxCell id="30" value="&lt;span style=&quot;color: rgb(0, 0, 0); font-family: Helvetica; font-size: 23px; font-style: normal; font-variant-ligatures: normal; font-variant-caps: normal; font-weight: 400; letter-spacing: normal; orphans: 2; text-indent: 0px; text-transform: none; widows: 2; word-spacing: 0px; -webkit-text-stroke-width: 0px; background-color: rgb(251, 251, 251); text-decoration-thickness: initial; text-decoration-style: initial; text-decoration-color: initial; float: none; display: inline !important;&quot;&gt;DMI interface&lt;/span&gt;" style="text;whiteSpace=wrap;html=1;fontSize=23;align=left;" vertex="1" parent="1">
                    <mxGeometry x="723" y="4120.14" width="180" height="30" as="geometry"/>
                </mxCell>
                <mxCell id="31" value="" style="endArrow=none;html=1;strokeWidth=4;rounded=1;startArrow=block;startFill=1;endFill=0;strokeColor=#67AB9F;fillColor=#0050ef;" edge="1" parent="1">
                    <mxGeometry width="50" height="50" relative="1" as="geometry">
                        <mxPoint x="663" y="4090.14" as="sourcePoint"/>
                        <mxPoint x="713" y="4090.14" as="targetPoint"/>
                    </mxGeometry>
                </mxCell>
                <mxCell id="32" value="&lt;span style=&quot;color: rgb(0, 0, 0); font-family: Helvetica; font-size: 23px; font-style: normal; font-variant-ligatures: normal; font-variant-caps: normal; font-weight: 400; letter-spacing: normal; orphans: 2; text-indent: 0px; text-transform: none; widows: 2; word-spacing: 0px; -webkit-text-stroke-width: 0px; background-color: rgb(251, 251, 251); text-decoration-thickness: initial; text-decoration-style: initial; text-decoration-color: initial; float: none; display: inline !important;&quot;&gt;jtag2dtm&lt;/span&gt;" style="text;whiteSpace=wrap;html=1;fontSize=23;align=left;" vertex="1" parent="1">
                    <mxGeometry x="723" y="4070.14" width="80" height="30" as="geometry"/>
                </mxCell>
                <mxCell id="33" value="" style="endArrow=none;html=1;strokeWidth=4;rounded=1;startArrow=block;startFill=1;endFill=0;strokeColor=#66B2FF;fillColor=#0050ef;" edge="1" parent="1">
                    <mxGeometry width="50" height="50" relative="1" as="geometry">
                        <mxPoint x="663" y="4190.14" as="sourcePoint"/>
                        <mxPoint x="713" y="4190.14" as="targetPoint"/>
                    </mxGeometry>
                </mxCell>
                <mxCell id="34" value="debug halt interrupt" style="text;whiteSpace=wrap;html=1;fontSize=23;align=left;" vertex="1" parent="1">
                    <mxGeometry x="723" y="4170.14" width="217" height="30" as="geometry"/>
                </mxCell>
                <mxCell id="35" style="edgeStyle=orthogonalEdgeStyle;rounded=0;orthogonalLoop=1;jettySize=auto;html=1;exitX=1;exitY=0.5;exitDx=0;exitDy=0;entryX=0.75;entryY=1;entryDx=0;entryDy=0;" edge="1" parent="1" source="36" target="96">
                    <mxGeometry relative="1" as="geometry"/>
                </mxCell>
                <mxCell id="36" value="&lt;font style=&quot;font-size: 25px;&quot;&gt;debug&lt;br&gt;rom&lt;/font&gt;" style="rounded=1;whiteSpace=wrap;html=1;fillColor=#fff2cc;strokeColor=#d6b656;" vertex="1" parent="1">
                    <mxGeometry x="127.5" y="5281.86" width="162.5" height="100" as="geometry"/>
                </mxCell>
                <mxCell id="37" value="" style="endArrow=none;html=1;strokeWidth=4;rounded=1;startArrow=block;startFill=1;endFill=0;strokeColor=#FF0000;fillColor=#0050ef;" edge="1" parent="1">
                    <mxGeometry width="50" height="50" relative="1" as="geometry">
                        <mxPoint x="663" y="4240.14" as="sourcePoint"/>
                        <mxPoint x="713" y="4240.14" as="targetPoint"/>
                    </mxGeometry>
                </mxCell>
                <mxCell id="38" value="debug instrcution req/ack&amp;nbsp;" style="text;whiteSpace=wrap;html=1;fontSize=23;align=left;" vertex="1" parent="1">
                    <mxGeometry x="723" y="4220.14" width="267" height="30" as="geometry"/>
                </mxCell>
                <mxCell id="39" value="&lt;b style=&quot;&quot;&gt;&lt;i style=&quot;&quot;&gt;&lt;font style=&quot;font-size: 30px;&quot;&gt;DEBUG MODULE&lt;/font&gt;&lt;br style=&quot;font-size: 20px;&quot;&gt;&lt;/i&gt;&lt;/b&gt;" style="text;html=1;align=center;verticalAlign=middle;resizable=0;points=[];autosize=1;strokeColor=none;fillColor=none;fontSize=20;" vertex="1" parent="1">
                    <mxGeometry x="400" y="5381.859999999999" width="270" height="50" as="geometry"/>
                </mxCell>
                <mxCell id="40" value="&lt;b style=&quot;font-size: 18px;&quot;&gt;&lt;i style=&quot;font-size: 18px;&quot;&gt;&lt;font style=&quot;font-size: 18px;&quot;&gt;DEBUG TRANSPORT MODULE&lt;/font&gt;&lt;br style=&quot;font-size: 18px;&quot;&gt;&lt;/i&gt;&lt;/b&gt;" style="text;html=1;align=center;verticalAlign=middle;resizable=0;points=[];autosize=1;strokeColor=none;fillColor=none;fontSize=18;" vertex="1" parent="1">
                    <mxGeometry x="-260" y="3970" width="290" height="40" as="geometry"/>
                </mxCell>
                <mxCell id="41" value="" style="endArrow=none;html=1;strokeWidth=4;rounded=1;startArrow=block;startFill=1;endFill=0;strokeColor=#FF8000;fillColor=#0050ef;" edge="1" parent="1">
                    <mxGeometry width="50" height="50" relative="1" as="geometry">
                        <mxPoint x="660" y="4300.14" as="sourcePoint"/>
                        <mxPoint x="710" y="4300.14" as="targetPoint"/>
                    </mxGeometry>
                </mxCell>
                <mxCell id="42" value="debug lsu req/ack" style="text;whiteSpace=wrap;html=1;fontSize=23;align=left;" vertex="1" parent="1">
                    <mxGeometry x="720" y="4280.14" width="220" height="30" as="geometry"/>
                </mxCell>
                <mxCell id="43" value="" style="rounded=0;whiteSpace=wrap;html=1;fillColor=#CCFFFF;" vertex="1" parent="1">
                    <mxGeometry x="-211.5" y="4200.139999999999" width="540" height="140" as="geometry"/>
                </mxCell>
                <mxCell id="44" value="IDCODE reg" style="rounded=1;whiteSpace=wrap;html=1;" vertex="1" parent="1">
                    <mxGeometry x="-71.5" y="4230.139999999999" width="120" height="20" as="geometry"/>
                </mxCell>
                <mxCell id="45" value="dtmcs reg" style="rounded=1;whiteSpace=wrap;html=1;" vertex="1" parent="1">
                    <mxGeometry x="198.5" y="4230.139999999999" width="120" height="20" as="geometry"/>
                </mxCell>
                <mxCell id="46" value="bypass reg" style="rounded=1;whiteSpace=wrap;html=1;" vertex="1" parent="1">
                    <mxGeometry x="-207.5" y="4230.139999999999" width="120" height="20" as="geometry"/>
                </mxCell>
                <mxCell id="47" value="DTM REG BANK" style="text;html=1;align=center;verticalAlign=middle;resizable=0;points=[];autosize=1;strokeColor=none;fillColor=none;fontStyle=3;" vertex="1" parent="1">
                    <mxGeometry x="-213.5" y="4310.139999999999" width="120" height="30" as="geometry"/>
                </mxCell>
                <mxCell id="48" value="" style="rounded=0;whiteSpace=wrap;html=1;fillColor=#CCFFCC;" vertex="1" parent="1">
                    <mxGeometry x="52.5" y="4218.139999999999" width="136" height="102" as="geometry"/>
                </mxCell>
                <mxCell id="49" value="dmi read reg" style="rounded=1;whiteSpace=wrap;html=1;" vertex="1" parent="1">
                    <mxGeometry x="62.5" y="4254.139999999999" width="120" height="20" as="geometry"/>
                </mxCell>
                <mxCell id="50" value="dmi write reg" style="rounded=1;whiteSpace=wrap;html=1;" vertex="1" parent="1">
                    <mxGeometry x="62.5" y="4290.139999999999" width="120" height="20" as="geometry"/>
                </mxCell>
                <mxCell id="51" value="DMI REG" style="text;html=1;align=center;verticalAlign=middle;resizable=0;points=[];autosize=1;strokeColor=none;fillColor=none;fontStyle=3;" vertex="1" parent="1">
                    <mxGeometry x="82.5" y="4218.139999999999" width="70" height="30" as="geometry"/>
                </mxCell>
                <mxCell id="52" value="" style="rounded=0;whiteSpace=wrap;html=1;fillColor=#CCFFFF;" vertex="1" parent="1">
                    <mxGeometry x="-120.5" y="4030.1399999999994" width="333" height="105" as="geometry"/>
                </mxCell>
                <mxCell id="53" style="edgeStyle=orthogonalEdgeStyle;rounded=0;orthogonalLoop=1;jettySize=auto;html=1;exitX=0;exitY=0.5;exitDx=0;exitDy=0;entryX=0.5;entryY=0;entryDx=0;entryDy=0;" edge="1" parent="1" source="55" target="56">
                    <mxGeometry relative="1" as="geometry"/>
                </mxCell>
                <mxCell id="54" style="edgeStyle=orthogonalEdgeStyle;rounded=0;orthogonalLoop=1;jettySize=auto;html=1;exitX=1;exitY=0.5;exitDx=0;exitDy=0;entryX=0.5;entryY=0;entryDx=0;entryDy=0;" edge="1" parent="1" source="55" target="57">
                    <mxGeometry relative="1" as="geometry"/>
                </mxCell>
                <mxCell id="55" value="shiift reg" style="rounded=1;whiteSpace=wrap;html=1;" vertex="1" parent="1">
                    <mxGeometry x="-14.5" y="4070.1399999999994" width="120" height="20" as="geometry"/>
                </mxCell>
                <mxCell id="56" value="inst reg" style="rounded=1;whiteSpace=wrap;html=1;" vertex="1" parent="1">
                    <mxGeometry x="-102" y="4110.139999999999" width="120" height="20" as="geometry"/>
                </mxCell>
                <mxCell id="57" value="DR hold reg" style="rounded=1;whiteSpace=wrap;html=1;" vertex="1" parent="1">
                    <mxGeometry x="72" y="4110.139999999999" width="120" height="20" as="geometry"/>
                </mxCell>
                <mxCell id="58" value="&lt;b&gt;&lt;i&gt;&lt;font style=&quot;font-size: 16px;&quot;&gt;JTAG TAP&lt;/font&gt;&lt;br&gt;&lt;/i&gt;&lt;/b&gt;" style="text;html=1;align=center;verticalAlign=middle;resizable=0;points=[];autosize=1;strokeColor=none;fillColor=none;" vertex="1" parent="1">
                    <mxGeometry x="-3" y="4030.1399999999994" width="100" height="30" as="geometry"/>
                </mxCell>
                <mxCell id="59" value="" style="endArrow=none;html=1;strokeWidth=4;rounded=1;startArrow=block;startFill=1;endFill=0;strokeColor=#000000;fillColor=#0050ef;" edge="1" parent="1">
                    <mxGeometry width="50" height="50" relative="1" as="geometry">
                        <mxPoint x="663" y="4050.14" as="sourcePoint"/>
                        <mxPoint x="713" y="4050.14" as="targetPoint"/>
                    </mxGeometry>
                </mxCell>
                <mxCell id="60" value="&lt;span style=&quot;color: rgb(0, 0, 0); font-family: Helvetica; font-size: 23px; font-style: normal; font-variant-ligatures: normal; font-variant-caps: normal; font-weight: 400; letter-spacing: normal; orphans: 2; text-indent: 0px; text-transform: none; widows: 2; word-spacing: 0px; -webkit-text-stroke-width: 0px; background-color: rgb(251, 251, 251); text-decoration-thickness: initial; text-decoration-style: initial; text-decoration-color: initial; float: none; display: inline !important;&quot;&gt;jtag&lt;/span&gt;" style="text;whiteSpace=wrap;html=1;fontSize=23;align=left;" vertex="1" parent="1">
                    <mxGeometry x="723" y="4030.14" width="80" height="30" as="geometry"/>
                </mxCell>
                <mxCell id="61" style="edgeStyle=orthogonalEdgeStyle;rounded=0;orthogonalLoop=1;jettySize=auto;html=1;exitX=1;exitY=0.5;exitDx=0;exitDy=0;entryX=0.25;entryY=1;entryDx=0;entryDy=0;" edge="1" parent="1" source="62" target="96">
                    <mxGeometry relative="1" as="geometry"/>
                </mxCell>
                <mxCell id="62" value="program buffer&lt;div&gt;(debug ram)&lt;/div&gt;" style="rounded=0;whiteSpace=wrap;html=1;fontSize=16;fillColor=#dae8fc;strokeColor=#6c8ebf;" vertex="1" parent="1">
                    <mxGeometry x="130" y="5170.72" width="170" height="60" as="geometry"/>
                </mxCell>
                <mxCell id="63" value="" style="endArrow=none;html=1;strokeWidth=4;rounded=1;startArrow=block;startFill=1;endFill=0;strokeColor=#00FF00;fillColor=#0050ef;" edge="1" parent="1">
                    <mxGeometry width="50" height="50" relative="1" as="geometry">
                        <mxPoint x="663" y="4360.14" as="sourcePoint"/>
                        <mxPoint x="713" y="4360.14" as="targetPoint"/>
                    </mxGeometry>
                </mxCell>
                <mxCell id="64" value="read/write data" style="text;whiteSpace=wrap;html=1;fontSize=23;align=left;" vertex="1" parent="1">
                    <mxGeometry x="723" y="4340.14" width="170" height="30" as="geometry"/>
                </mxCell>
                <mxCell id="65" value="&lt;b&gt;&lt;font style=&quot;font-size: 14px;&quot;&gt;DM CTRL REG&lt;/font&gt;&lt;/b&gt;" style="text;html=1;align=center;verticalAlign=middle;resizable=0;points=[];autosize=1;strokeColor=none;fillColor=none;" vertex="1" parent="1">
                    <mxGeometry x="145" y="4893.719999999999" width="120" height="30" as="geometry"/>
                </mxCell>
                <mxCell id="66" value="&lt;b style=&quot;font-size: 20px;&quot;&gt;&lt;i style=&quot;font-size: 20px;&quot;&gt;&lt;font style=&quot;font-size: 20px;&quot;&gt;DMI interface&lt;/font&gt;&lt;br style=&quot;font-size: 20px;&quot;&gt;&lt;/i&gt;&lt;/b&gt;" style="text;html=1;align=center;verticalAlign=middle;resizable=0;points=[];autosize=1;strokeColor=none;fillColor=none;fontSize=20;fontColor=#0000FF;" vertex="1" parent="1">
                    <mxGeometry x="-150" y="4480" width="150" height="40" as="geometry"/>
                </mxCell>
                <mxCell id="67" style="edgeStyle=orthogonalEdgeStyle;rounded=0;orthogonalLoop=1;jettySize=auto;html=1;exitX=1;exitY=0.5;exitDx=0;exitDy=0;entryX=0;entryY=0.5;entryDx=0;entryDy=0;" edge="1" parent="1" source="68" target="75">
                    <mxGeometry relative="1" as="geometry">
                        <mxPoint x="1120.15" y="4990.18909090909" as="targetPoint"/>
                    </mxGeometry>
                </mxCell>
                <mxCell id="68" value="Fetch" style="rounded=0;whiteSpace=wrap;html=1;fontSize=16;" vertex="1" parent="1">
                    <mxGeometry x="910.1500000000001" y="4950" width="133.35" height="60" as="geometry"/>
                </mxCell>
                <mxCell id="69" value="" style="endArrow=none;html=1;rounded=0;strokeColor=#FF0000;strokeWidth=5;" edge="1" parent="1">
                    <mxGeometry width="50" height="50" relative="1" as="geometry">
                        <mxPoint x="604" y="5325.21" as="sourcePoint"/>
                        <mxPoint x="604" y="5024.79" as="targetPoint"/>
                    </mxGeometry>
                </mxCell>
                <mxCell id="70" value="" style="shape=flexArrow;endArrow=classic;html=1;rounded=0;fillColor=#FF0000;" edge="1" parent="1">
                    <mxGeometry width="50" height="50" relative="1" as="geometry">
                        <mxPoint x="723" y="5080.07" as="sourcePoint"/>
                        <mxPoint x="605" y="5079.57" as="targetPoint"/>
                    </mxGeometry>
                </mxCell>
                <mxCell id="71" value="&lt;font color=&quot;#ff0000&quot; style=&quot;font-size: 14px;&quot;&gt;&lt;b&gt;&lt;i&gt;debug_inst_req&lt;/i&gt;&lt;/b&gt;&lt;/font&gt;" style="text;html=1;align=center;verticalAlign=middle;resizable=0;points=[];autosize=1;strokeColor=none;fillColor=none;" vertex="1" parent="1">
                    <mxGeometry x="599" y="5044.789999999999" width="130" height="30" as="geometry"/>
                </mxCell>
                <mxCell id="72" value="" style="shape=flexArrow;endArrow=classic;html=1;rounded=0;fillColor=#FF0000;" edge="1" parent="1">
                    <mxGeometry width="50" height="50" relative="1" as="geometry">
                        <mxPoint x="605" y="5265.22" as="sourcePoint"/>
                        <mxPoint x="725" y="5264.79" as="targetPoint"/>
                    </mxGeometry>
                </mxCell>
                <mxCell id="73" value="&lt;font color=&quot;#ff0000&quot; style=&quot;font-size: 14px;&quot;&gt;&lt;b&gt;&lt;i&gt;debug_inst_ack&lt;/i&gt;&lt;/b&gt;&lt;/font&gt;" style="text;html=1;align=center;verticalAlign=middle;resizable=0;points=[];autosize=1;strokeColor=none;fillColor=none;" vertex="1" parent="1">
                    <mxGeometry x="599" y="5275.789999999999" width="130" height="30" as="geometry"/>
                </mxCell>
                <mxCell id="74" style="edgeStyle=orthogonalEdgeStyle;rounded=0;orthogonalLoop=1;jettySize=auto;html=1;exitX=1;exitY=0.5;exitDx=0;exitDy=0;entryX=0;entryY=0.5;entryDx=0;entryDy=0;" edge="1" parent="1" source="75" target="6">
                    <mxGeometry relative="1" as="geometry"/>
                </mxCell>
                <mxCell id="75" value="Dispatch/&lt;div&gt;Decode&lt;/div&gt;" style="rounded=0;whiteSpace=wrap;html=1;fontSize=16;" vertex="1" parent="1">
                    <mxGeometry x="1106.9999999999998" y="4950" width="133.35" height="60" as="geometry"/>
                </mxCell>
                <mxCell id="76" value="" style="endArrow=none;html=1;rounded=0;strokeColor=#FF8000;strokeWidth=5;fontColor=#FF8000;" edge="1" parent="1">
                    <mxGeometry width="50" height="50" relative="1" as="geometry">
                        <mxPoint x="600.89" y="4818.689999999999" as="sourcePoint"/>
                        <mxPoint x="601" y="4611.049999999999" as="targetPoint"/>
                    </mxGeometry>
                </mxCell>
                <mxCell id="77" value="" style="shape=flexArrow;endArrow=classic;html=1;rounded=0;fillColor=#FF8000;exitX=0.5;exitY=0;exitDx=0;exitDy=0;" edge="1" parent="1">
                    <mxGeometry width="50" height="50" relative="1" as="geometry">
                        <mxPoint x="762" y="4671.489999999998" as="sourcePoint"/>
                        <mxPoint x="602" y="4671.489999999999" as="targetPoint"/>
                    </mxGeometry>
                </mxCell>
                <mxCell id="78" value="&lt;font color=&quot;#ff8000&quot; style=&quot;font-size: 14px;&quot;&gt;&lt;span style=&quot;&quot;&gt;&lt;span style=&quot;&quot;&gt;debug_lsu_req&lt;/span&gt;&lt;/span&gt;&lt;/font&gt;" style="text;html=1;align=center;verticalAlign=middle;resizable=0;points=[];autosize=1;strokeColor=none;fillColor=none;fontStyle=3;" vertex="1" parent="1">
                    <mxGeometry x="619.89" y="4632.36" width="120" height="30" as="geometry"/>
                </mxCell>
                <mxCell id="79" value="" style="shape=flexArrow;endArrow=classic;html=1;rounded=0;fillColor=#FF8000;" edge="1" parent="1">
                    <mxGeometry width="50" height="50" relative="1" as="geometry">
                        <mxPoint x="602.89" y="4770.83" as="sourcePoint"/>
                        <mxPoint x="761.89" y="4771.36" as="targetPoint"/>
                    </mxGeometry>
                </mxCell>
                <mxCell id="80" value="&lt;font color=&quot;#ff8000&quot; style=&quot;font-size: 14px;&quot;&gt;&lt;span style=&quot;&quot;&gt;&lt;span style=&quot;&quot;&gt;debug lsu ack&lt;/span&gt;&lt;/span&gt;&lt;/font&gt;" style="text;html=1;align=center;verticalAlign=middle;resizable=0;points=[];autosize=1;strokeColor=none;fillColor=none;fontStyle=3;" vertex="1" parent="1">
                    <mxGeometry x="624.89" y="4737.079999999999" width="110" height="30" as="geometry"/>
                </mxCell>
                <mxCell id="81" value="" style="endArrow=none;html=1;rounded=0;strokeColor=#FF0000;strokeWidth=5;exitX=0.973;exitY=-0.134;exitDx=0;exitDy=0;exitPerimeter=0;" edge="1" parent="1" source="73">
                    <mxGeometry width="50" height="50" relative="1" as="geometry">
                        <mxPoint x="724" y="5204.79" as="sourcePoint"/>
                        <mxPoint x="725" y="5044.789999999999" as="targetPoint"/>
                    </mxGeometry>
                </mxCell>
                <mxCell id="82" value="&lt;b style=&quot;font-size: 30px;&quot;&gt;&lt;i style=&quot;font-size: 30px;&quot;&gt;HART&lt;br style=&quot;font-size: 30px;&quot;&gt;&lt;/i&gt;&lt;/b&gt;" style="text;html=1;align=center;verticalAlign=middle;resizable=0;points=[];autosize=1;strokeColor=none;fillColor=none;fontSize=30;" vertex="1" parent="1">
                    <mxGeometry x="1610.0000000000005" y="5210.999999999998" width="110" height="50" as="geometry"/>
                </mxCell>
                <mxCell id="83" value="DMI FIFO" style="rounded=0;whiteSpace=wrap;html=1;fillColor=#CCFFCC;" vertex="1" parent="1">
                    <mxGeometry x="-31.5" y="4420" width="100" height="60" as="geometry"/>
                </mxCell>
                <mxCell id="84" value="Halted" style="rounded=0;whiteSpace=wrap;html=1;fontSize=16;" vertex="1" parent="1">
                    <mxGeometry x="126" y="4729.72" width="104" height="20" as="geometry"/>
                </mxCell>
                <mxCell id="85" value="&lt;b&gt;&lt;font style=&quot;font-size: 14px;&quot;&gt;Data/State reg&lt;/font&gt;&lt;/b&gt;" style="text;html=1;align=center;verticalAlign=middle;resizable=0;points=[];autosize=1;strokeColor=none;fillColor=none;" vertex="1" parent="1">
                    <mxGeometry x="189.5" y="4639.719999999999" width="120" height="30" as="geometry"/>
                </mxCell>
                <mxCell id="86" value="Going" style="rounded=0;whiteSpace=wrap;html=1;fontSize=16;" vertex="1" parent="1">
                    <mxGeometry x="278.5" y="4729.72" width="104" height="20" as="geometry"/>
                </mxCell>
                <mxCell id="87" value="Resume" style="rounded=0;whiteSpace=wrap;html=1;fontSize=16;" vertex="1" parent="1">
                    <mxGeometry x="126" y="4779.72" width="104" height="20" as="geometry"/>
                </mxCell>
                <mxCell id="88" value="exception" style="rounded=0;whiteSpace=wrap;html=1;fontSize=16;" vertex="1" parent="1">
                    <mxGeometry x="278.5" y="4779.72" width="104" height="20" as="geometry"/>
                </mxCell>
                <mxCell id="89" value="Data reg" style="rounded=0;whiteSpace=wrap;html=1;fontSize=16;" vertex="1" parent="1">
                    <mxGeometry x="200.5" y="4676.000000000001" width="104" height="20" as="geometry"/>
                </mxCell>
                <mxCell id="90" value="" style="endArrow=classic;startArrow=classic;html=1;rounded=0;entryX=0;entryY=0.5;entryDx=0;entryDy=0;strokeColor=#0000ff;" edge="1" parent="1" target="89">
                    <mxGeometry width="50" height="50" relative="1" as="geometry">
                        <mxPoint x="20" y="4686" as="sourcePoint"/>
                        <mxPoint x="200.5" y="4682.67" as="targetPoint"/>
                    </mxGeometry>
                </mxCell>
                <mxCell id="91" value="&lt;font style=&quot;font-size: 14px;&quot;&gt;&lt;span style=&quot;&quot;&gt;&lt;span style=&quot;&quot;&gt;update state&lt;/span&gt;&lt;/span&gt;&lt;/font&gt;" style="text;html=1;align=center;verticalAlign=middle;resizable=0;points=[];autosize=1;strokeColor=none;fillColor=none;fontStyle=1;fontColor=#000000;" vertex="1" parent="1">
                    <mxGeometry x="188.5" y="4839.33" width="100" height="30" as="geometry"/>
                </mxCell>
                <mxCell id="92" value="" style="endArrow=classic;startArrow=classic;html=1;rounded=0;entryX=0;entryY=0.5;entryDx=0;entryDy=0;strokeColor=#0000ff;exitX=0.377;exitY=0;exitDx=0;exitDy=0;exitPerimeter=0;" edge="1" parent="1" source="13">
                    <mxGeometry width="50" height="50" relative="1" as="geometry">
                        <mxPoint x="182" y="4890" as="sourcePoint"/>
                        <mxPoint x="181.55" y="4809.72" as="targetPoint"/>
                    </mxGeometry>
                </mxCell>
                <mxCell id="93" style="edgeStyle=orthogonalEdgeStyle;rounded=0;orthogonalLoop=1;jettySize=auto;html=1;strokeColor=#ff0000;strokeWidth=2;" edge="1" parent="1">
                    <mxGeometry relative="1" as="geometry">
                        <mxPoint x="355" y="5140" as="targetPoint"/>
                        <mxPoint x="600" y="5080" as="sourcePoint"/>
                        <Array as="points">
                            <mxPoint x="355" y="5080"/>
                        </Array>
                    </mxGeometry>
                </mxCell>
                <mxCell id="94" style="edgeStyle=orthogonalEdgeStyle;rounded=0;orthogonalLoop=1;jettySize=auto;html=1;exitX=0;exitY=0.5;exitDx=0;exitDy=0;entryX=0;entryY=0.5;entryDx=0;entryDy=0;strokeColor=#FF0000;" edge="1" parent="1" target="96">
                    <mxGeometry relative="1" as="geometry">
                        <mxPoint x="354.8888888888889" y="5140" as="sourcePoint"/>
                    </mxGeometry>
                </mxCell>
                <mxCell id="95" style="edgeStyle=orthogonalEdgeStyle;rounded=0;orthogonalLoop=1;jettySize=auto;html=1;exitX=0.5;exitY=0;exitDx=0;exitDy=0;strokeColor=#FF0000;strokeWidth=2;" edge="1" parent="1" source="96">
                    <mxGeometry relative="1" as="geometry">
                        <mxPoint x="600" y="5261" as="targetPoint"/>
                    </mxGeometry>
                </mxCell>
                <mxCell id="96" value="mux" style="shape=trapezoid;perimeter=trapezoidPerimeter;whiteSpace=wrap;html=1;fixedSize=1;rotation=90;fillColor=#ffe6cc;strokeColor=#d79b00;" vertex="1" parent="1">
                    <mxGeometry x="300" y="5250.999999999999" width="110" height="20" as="geometry"/>
                </mxCell>
                <mxCell id="97" value="&lt;font color=&quot;#ff0000&quot; style=&quot;font-size: 14px;&quot;&gt;&lt;b&gt;&lt;i&gt;debug pc&lt;/i&gt;&lt;/b&gt;&lt;/font&gt;" style="text;html=1;align=center;verticalAlign=middle;resizable=0;points=[];autosize=1;strokeColor=none;fillColor=none;" vertex="1" parent="1">
                    <mxGeometry x="402.5" y="5050.719999999999" width="90" height="30" as="geometry"/>
                </mxCell>
                <mxCell id="98" value="" style="endArrow=none;html=1;rounded=0;strokeColor=#FF0000;strokeWidth=5;fontColor=#FF8000;" edge="1" parent="1">
                    <mxGeometry width="50" height="50" relative="1" as="geometry">
                        <mxPoint x="384.5" y="5139.999999999999" as="sourcePoint"/>
                        <mxPoint x="260" y="5140" as="targetPoint"/>
                    </mxGeometry>
                </mxCell>
                <mxCell id="99" value="" style="endArrow=classic;html=1;rounded=0;strokeColor=#FF0000;" edge="1" parent="1">
                    <mxGeometry width="50" height="50" relative="1" as="geometry">
                        <mxPoint x="265" y="5142.72" as="sourcePoint"/>
                        <mxPoint x="265" y="5170.72" as="targetPoint"/>
                    </mxGeometry>
                </mxCell>
                <mxCell id="100" value="&lt;font color=&quot;#ff0000&quot;&gt;&lt;span style=&quot;font-size: 14px;&quot;&gt;&lt;b&gt;&lt;span&gt;sel&lt;/span&gt;&lt;/b&gt;&lt;/span&gt;&lt;/font&gt;" style="text;html=1;align=center;verticalAlign=middle;resizable=0;points=[];autosize=1;strokeColor=none;fillColor=none;fontStyle=0;" vertex="1" parent="1">
                    <mxGeometry x="318.5" y="5159.999999999999" width="40" height="30" as="geometry"/>
                </mxCell>
                <mxCell id="101" value="&lt;font color=&quot;#ff0000&quot; style=&quot;font-size: 14px;&quot;&gt;&lt;b&gt;&lt;i&gt;debug instruction&lt;/i&gt;&lt;/b&gt;&lt;/font&gt;" style="text;html=1;align=center;verticalAlign=middle;resizable=0;points=[];autosize=1;strokeColor=none;fillColor=none;" vertex="1" parent="1">
                    <mxGeometry x="395" y="5260.999999999999" width="140" height="30" as="geometry"/>
                </mxCell>
                <mxCell id="102" value="" style="endArrow=classic;html=1;rounded=0;entryX=1;entryY=0.14;entryDx=0;entryDy=0;entryPerimeter=0;strokeColor=#ff8000;strokeWidth=2;" edge="1" parent="1" target="8">
                    <mxGeometry width="50" height="50" relative="1" as="geometry">
                        <mxPoint x="600" y="4660" as="sourcePoint"/>
                        <mxPoint x="628" y="4659.13" as="targetPoint"/>
                    </mxGeometry>
                </mxCell>
                <mxCell id="103" value="" style="endArrow=classic;html=1;rounded=0;strokeColor=#ff8000;strokeWidth=2;exitX=1;exitY=0.68;exitDx=0;exitDy=0;exitPerimeter=0;" edge="1" parent="1" source="8">
                    <mxGeometry width="50" height="50" relative="1" as="geometry">
                        <mxPoint x="554.5" y="4758.47" as="sourcePoint"/>
                        <mxPoint x="600" y="4760" as="targetPoint"/>
                    </mxGeometry>
                </mxCell>
                <mxCell id="104" value="&lt;font color=&quot;#7ea6e0&quot; style=&quot;font-size: 14px;&quot;&gt;debug halt req&lt;/font&gt;" style="text;html=1;align=center;verticalAlign=middle;resizable=0;points=[];autosize=1;strokeColor=none;fillColor=none;fontStyle=3;" vertex="1" parent="1">
                    <mxGeometry x="382.5" y="4923.719999999999" width="110" height="30" as="geometry"/>
                </mxCell>
                <mxCell id="105" value="" style="rounded=0;whiteSpace=wrap;html=1;fillColor=#E6FFCC;movable=1;resizable=1;rotatable=1;deletable=1;editable=1;locked=0;connectable=1;" vertex="1" parent="1">
                    <mxGeometry x="1479.3" y="4560.003671416596" width="200.7" height="200.86" as="geometry"/>
                </mxCell>
                <mxCell id="106" value="debug control and status" style="rounded=1;whiteSpace=wrap;html=1;movable=1;resizable=1;rotatable=1;deletable=1;editable=1;locked=0;connectable=1;" vertex="1" parent="1">
                    <mxGeometry x="1515.4267605633802" y="4588.723730092204" width="128.45070422535213" height="34.408046940486166" as="geometry"/>
                </mxCell>
                <mxCell id="107" value="debug PC" style="rounded=1;whiteSpace=wrap;html=1;movable=1;resizable=1;rotatable=1;deletable=1;editable=1;locked=0;connectable=1;" vertex="1" parent="1">
                    <mxGeometry x="1515.4267605633802" y="4633.2258005029325" width="128.45070422535213" height="34.408046940486166" as="geometry"/>
                </mxCell>
                <mxCell id="108" value="debug scratch0&amp;nbsp;" style="rounded=1;whiteSpace=wrap;html=1;movable=1;resizable=1;rotatable=1;deletable=1;editable=1;locked=0;connectable=1;" vertex="1" parent="1">
                    <mxGeometry x="1515.4267605633802" y="4678.7184744341985" width="128.45070422535213" height="34.408046940486166" as="geometry"/>
                </mxCell>
                <mxCell id="109" value="debug scratch1&amp;nbsp;" style="rounded=1;whiteSpace=wrap;html=1;movable=1;resizable=1;rotatable=1;deletable=1;editable=1;locked=0;connectable=1;" vertex="1" parent="1">
                    <mxGeometry x="1515.4267605633802" y="4721.290746018441" width="128.45070422535213" height="34.408046940486166" as="geometry"/>
                </mxCell>
                <mxCell id="110" value="&lt;i&gt;&lt;b&gt;debug mode REG BANK&lt;/b&gt;&lt;/i&gt;" style="text;html=1;align=center;verticalAlign=middle;resizable=1;points=[];autosize=1;strokeColor=none;fillColor=none;movable=1;rotatable=1;deletable=1;editable=1;locked=0;connectable=1;" vertex="1" parent="1">
                    <mxGeometry x="1517.4808450704224" y="4562.915180217938" width="128.45070422535213" height="25.806035205364626" as="geometry"/>
                </mxCell>
                <mxCell id="111" value="LSU" style="rounded=0;whiteSpace=wrap;html=1;fontSize=16;" vertex="1" parent="1">
                    <mxGeometry x="1309.9999999999998" y="4960.42" width="133.35" height="60" as="geometry"/>
                </mxCell>
                <mxCell id="112" value="ALU" style="rounded=0;whiteSpace=wrap;html=1;fontSize=16;" vertex="1" parent="1">
                    <mxGeometry x="1309.9999999999998" y="5060" width="133.35" height="60" as="geometry"/>
                </mxCell>
                <mxCell id="113" value="CSR" style="rounded=0;whiteSpace=wrap;html=1;fontSize=16;fillColor=#ffe6cc;strokeColor=#d79b00;" vertex="1" parent="1">
                    <mxGeometry x="1309.9999999999998" y="4850" width="133.35" height="60" as="geometry"/>
                </mxCell>
                <mxCell id="114" value="RTU" style="rounded=0;whiteSpace=wrap;html=1;fontSize=16;" vertex="1" parent="1">
                    <mxGeometry x="1519.9999999999998" y="4950" width="133.35" height="60" as="geometry"/>
                </mxCell>
                <mxCell id="115" value="" style="endArrow=none;dashed=1;html=1;dashPattern=1 3;strokeWidth=3;rounded=0;exitX=0;exitY=0;exitDx=0;exitDy=0;strokeColor=#FF0000;" edge="1" parent="1" source="113">
                    <mxGeometry width="50" height="50" relative="1" as="geometry">
                        <mxPoint x="1429.3" y="4612.92" as="sourcePoint"/>
                        <mxPoint x="1479.3" y="4562.92" as="targetPoint"/>
                    </mxGeometry>
                </mxCell>
                <mxCell id="116" value="" style="endArrow=none;dashed=1;html=1;dashPattern=1 3;strokeWidth=3;rounded=0;exitX=1;exitY=0;exitDx=0;exitDy=0;entryX=0;entryY=1;entryDx=0;entryDy=0;strokeColor=#FF0000;" edge="1" parent="1" source="113" target="105">
                    <mxGeometry width="50" height="50" relative="1" as="geometry">
                        <mxPoint x="1320" y="4860" as="sourcePoint"/>
                        <mxPoint x="1489.3" y="4572.92" as="targetPoint"/>
                    </mxGeometry>
                </mxCell>
                <mxCell id="117" value="" style="endArrow=none;html=1;rounded=0;strokeColor=#FF8000;strokeWidth=5;fontColor=#FF8000;" edge="1" parent="1">
                    <mxGeometry width="50" height="50" relative="1" as="geometry">
                        <mxPoint x="762" y="4800" as="sourcePoint"/>
                        <mxPoint x="762" y="4640" as="targetPoint"/>
                    </mxGeometry>
                </mxCell>
                <mxCell id="118" value="" style="endArrow=classic;startArrow=classic;html=1;rounded=0;entryX=0.5;entryY=0;entryDx=0;entryDy=0;strokeColor=#FF8000;strokeWidth=3;" edge="1" parent="1" target="4">
                    <mxGeometry width="50" height="50" relative="1" as="geometry">
                        <mxPoint x="760" y="4710" as="sourcePoint"/>
                        <mxPoint x="820" y="4670" as="targetPoint"/>
                        <Array as="points">
                            <mxPoint x="1280" y="4710"/>
                        </Array>
                    </mxGeometry>
                </mxCell>
                <mxCell id="119" value="" style="endArrow=classic;startArrow=classic;html=1;rounded=0;entryX=0.5;entryY=1;entryDx=0;entryDy=0;strokeColor=#FF0000;strokeWidth=3;" edge="1" parent="1" target="68">
                    <mxGeometry width="50" height="50" relative="1" as="geometry">
                        <mxPoint x="730" y="5170" as="sourcePoint"/>
                        <mxPoint x="780" y="5120" as="targetPoint"/>
                        <Array as="points">
                            <mxPoint x="977" y="5170"/>
                        </Array>
                    </mxGeometry>
                </mxCell>
                <mxCell id="120" value="&lt;font color=&quot;#ff0000&quot; style=&quot;font-size: 14px;&quot;&gt;&lt;b&gt;&lt;span&gt;debug inst fetch&lt;/span&gt;&lt;/b&gt;&lt;/font&gt;" style="text;html=1;align=center;verticalAlign=middle;resizable=0;points=[];autosize=1;strokeColor=none;fillColor=none;fontStyle=0;" vertex="1" parent="1">
                    <mxGeometry x="977" y="5065.719999999999" width="130" height="30" as="geometry"/>
                </mxCell>
                <mxCell id="121" value="&lt;font color=&quot;#ff8000&quot; style=&quot;font-size: 14px;&quot;&gt;&lt;b style=&quot;&quot;&gt;&lt;span style=&quot;&quot;&gt;debug lsu data&lt;/span&gt;&lt;/b&gt;&lt;/font&gt;" style="text;html=1;align=center;verticalAlign=middle;resizable=0;points=[];autosize=1;strokeColor=none;fillColor=none;fontStyle=0;" vertex="1" parent="1">
                    <mxGeometry x="1015" y="4675.999999999999" width="120" height="30" as="geometry"/>
                </mxCell>
                <mxCell id="122" value="&lt;font color=&quot;#ff8000&quot; style=&quot;font-size: 14px;&quot;&gt;&lt;span style=&quot;&quot;&gt;&lt;span style=&quot;&quot;&gt;write data and&amp;nbsp;&lt;/span&gt;&lt;/span&gt;&lt;/font&gt;&lt;span style=&quot;font-size: 14px; color: rgb(255, 128, 0); background-color: initial;&quot;&gt;state&lt;/span&gt;" style="text;html=1;align=center;verticalAlign=middle;resizable=0;points=[];autosize=1;strokeColor=none;fillColor=none;fontStyle=3;" vertex="1" parent="1">
                    <mxGeometry x="435" y="4623.13" width="150" height="30" as="geometry"/>
                </mxCell>
                <mxCell id="123" value="&lt;font color=&quot;#ff8000&quot; style=&quot;font-size: 14px;&quot;&gt;&lt;span style=&quot;&quot;&gt;&lt;span style=&quot;&quot;&gt;read data and state&lt;/span&gt;&lt;/span&gt;&lt;/font&gt;" style="text;html=1;align=center;verticalAlign=middle;resizable=0;points=[];autosize=1;strokeColor=none;fillColor=none;fontStyle=3;" vertex="1" parent="1">
                    <mxGeometry x="434" y="4730.86" width="140" height="30" as="geometry"/>
                </mxCell>
            </root>
        </mxGraphModel>
    </diagram>
</mxfile>